<svg xmlns="http://www.w3.org/2000/svg" width="24" height="24" viewBox="0 0 24 24" fill="none" stroke="currentColor" stroke-width="2" stroke-linecap="round" stroke-linejoin="round" class="lucide lucide-brain-circuit"><path d="M12 4.5a2.5 2.5 0 0 0-4.96-.46 2.5 2.5 0 0 0-1.98 3 2.5 2.5 0 0 0-1.32 4.24 3 3 0 0 0 .34 5.58 2.5 2.5 0 0 0 2.96 3.08A2.5 2.5 0 0 0 12 19.5a2.5 2.5 0 0 0 4.96.46 2.5 2.5 0 0 0 1.98-3 2.5 2.5 0 0 0 1.32-4.24 3 3 0 0 0-.34-5.58 2.5 2.5 0 0 0-2.96-3.08A2.5 2.5 0 0 0 12 4.5Z"/><path d="m7 16 10-8"/><path d="m7 8 10 8"/></svg>